# Blender v2.79 (sub 0) OBJ File: 'MuseumT.blend'
# www.blender.org
mtllib MuseumT.mtl
o Plane.023
v 14.500000 0.000000 2.500000
v 14.500000 0.000000 -2.500000
v 14.500000 3.000000 2.500000
v 14.500000 3.000000 -2.500000
v 9.500000 -0.000000 2.500000
v 14.500000 0.000000 2.500000
v 9.500000 3.000000 2.500000
v 14.500000 3.000000 2.500000
v 9.500000 -0.000000 -2.500000
v 14.500000 -0.000000 -2.500000
v 9.500000 3.000000 -2.500000
v 14.500000 3.000000 -2.500000
v 9.500000 -0.000000 2.500000
v 9.500000 -0.000000 -2.500000
v 9.500000 3.000000 2.500000
v 9.500000 3.000000 -2.500000
v 9.500000 0.020000 0.375000
v 9.500000 0.020000 -0.375000
v 9.500000 1.520000 -0.375000
v 9.500000 1.520000 0.375000
v -9.499998 -0.000000 2.000000
v -9.499998 -0.000000 -1.999999
v -9.499998 3.000000 2.000000
v -9.499998 3.000000 -2.000000
v -1.999996 -0.000000 -9.500001
v 2.000001 -0.000000 -9.499999
v -1.999996 3.000000 -9.499999
v 2.000002 3.000000 -9.499999
v -9.499998 -0.000002 -2.000000
v -2.500000 -0.000002 -2.000000
v -9.499998 2.999998 -2.000000
v -2.500000 2.999998 -2.000000
v -9.499998 -0.000002 2.000000
v -2.500000 -0.000002 2.000000
v -9.499998 2.999998 2.000000
v -2.500000 2.999998 2.000000
v 2.500001 -0.000002 2.000000
v 9.500000 -0.000002 2.000000
v 2.500001 2.999998 2.000000
v 9.500000 2.999998 2.000000
v 2.500001 -0.000002 -2.000000
v 9.500000 -0.000002 -2.000000
v 2.500001 2.999998 -2.000000
v 9.500000 2.999998 -2.000000
v 2.000001 -0.000002 -2.500000
v 2.000001 -0.000002 -9.499999
v 2.000001 2.999998 -2.500000
v 2.000002 2.999998 -9.499999
v -1.999998 -0.000000 -2.500000
v -1.999996 -0.000000 -9.500001
v -1.999998 3.000000 -2.500000
v -1.999996 3.000000 -9.499999
v -1.999998 -0.000000 9.500000
v -1.999998 -0.000000 2.500000
v -1.999998 3.000000 9.500000
v -1.999998 3.000000 2.500000
v 2.000001 -0.000000 9.500000
v 2.000001 -0.000000 2.500000
v 2.000002 3.000000 9.500000
v 2.000001 3.000000 2.500000
v 2.500001 -0.000000 2.500000
v 2.500001 -0.000000 -2.500000
v 2.500001 3.000000 2.500000
v 2.500001 3.000000 -2.500000
v 2.500001 0.020000 0.375000
v 2.500001 0.020000 -0.375000
v 2.500001 1.520000 -0.375000
v 2.500001 1.520000 0.375000
v -2.500000 -0.000000 2.500000
v -2.500000 -0.000000 -2.500000
v -2.500000 3.000000 2.500000
v -2.500000 3.000000 -2.500000
v -2.500000 0.020000 0.375000
v -2.500000 0.020000 -0.375000
v -2.500000 1.520000 -0.375000
v -2.500000 1.520000 0.375000
v -2.500000 1.275000 0.375001
v -2.500000 -0.000000 2.500000
v 2.500001 -0.000000 2.500000
v -2.500000 3.000000 2.500000
v 2.500001 3.000000 2.500000
v -0.375000 1.520000 2.500000
v 0.375001 1.520000 2.500000
v 0.375001 0.020000 2.500000
v -0.375000 0.020000 2.500000
v -1.999998 -0.000000 9.500000
v 2.000001 -0.000000 9.500000
v -1.999998 3.000000 9.500000
v 2.000002 3.000000 9.500000
v -2.500000 -0.000000 -2.500000
v 2.500000 -0.000000 -2.500000
v -2.500000 3.000000 -2.500000
v 2.500000 3.000000 -2.500000
v -0.375000 1.520000 -2.500000
v 0.375000 1.520000 -2.500000
v 0.375000 0.020000 -2.500000
v -0.375000 0.020000 -2.500000
vn 1.0000 0.0000 0.0000
vn -0.0000 -0.0000 1.0000
vn 1.0000 -0.0001 0.0000
usemtl Material.001
s off
f 2//1 3//1 1//1
f 6//2 7//2 5//2
f 10//2 11//2 9//2
f 14//1 19//1 18//1
f 20//1 13//1 17//1
f 22//1 23//1 21//1
f 26//2 27//2 25//2
f 30//2 31//2 29//2
f 34//2 35//2 33//2
f 38//2 39//2 37//2
f 42//2 43//2 41//2
f 46//1 47//1 45//1
f 49//1 52//1 51//1
f 54//1 55//1 53//1
f 58//1 59//1 57//1
f 62//1 67//1 66//1
f 68//1 61//1 65//1
f 69//1 70//1 73//1
f 76//1 69//1 77//1
f 79//2 83//2 84//2
f 83//2 81//2 80//2
f 87//2 88//2 86//2
f 91//2 95//2 96//2
f 94//2 93//2 92//2
f 2//1 4//1 3//1
f 6//2 8//2 7//2
f 10//2 12//2 11//2
f 17//1 13//1 14//1
f 14//1 16//1 19//1
f 18//1 17//1 14//1
f 20//1 19//1 16//1
f 15//1 13//1 20//1
f 20//1 16//1 15//1
f 22//1 24//1 23//1
f 26//2 28//2 27//2
f 30//2 32//2 31//2
f 34//2 36//2 35//2
f 38//2 40//2 39//2
f 42//2 44//2 43//2
f 46//1 48//1 47//1
f 49//1 50//1 52//1
f 54//1 56//1 55//1
f 58//1 60//1 59//1
f 65//1 61//1 62//1
f 62//1 64//1 67//1
f 66//3 65//3 62//3
f 68//1 67//1 63//1
f 63//1 61//1 68//1
f 67//1 64//1 63//1
f 70//1 72//1 75//1
f 70//1 75//1 74//1
f 73//1 77//1 69//1
f 70//1 74//1 73//1
f 76//1 75//1 72//1
f 71//1 69//1 76//1
f 76//1 72//1 71//1
f 85//2 78//2 84//2
f 79//2 81//2 83//2
f 84//2 78//2 79//2
f 78//2 85//2 82//2
f 82//2 83//2 80//2
f 80//2 78//2 82//2
f 87//2 89//2 88//2
f 97//2 90//2 96//2
f 91//2 93//2 95//2
f 96//2 90//2 91//2
f 90//2 97//2 94//2
f 94//2 95//2 93//2
f 92//2 90//2 94//2
o Plane
v -2.500000 0.000000 2.500000
v 2.500000 0.000000 2.500000
v -2.500000 0.000000 -2.500000
v 2.500000 0.000000 -2.500000
v 9.500000 0.000000 2.500000
v 14.500000 0.000000 2.500000
v 9.500000 0.000000 -2.500000
v 14.500000 0.000000 -2.500000
v -2.000000 0.000000 -2.500000
v 2.000000 0.000000 -2.500000
v -2.000000 0.000000 -9.500000
v 2.000000 0.000000 -9.500000
v -2.500000 0.000000 2.000000
v -2.500000 0.000000 -2.000000
v -9.500000 0.000000 2.000000
v -9.500000 0.000000 -2.000000
v 9.500000 0.000000 2.000000
v 9.500000 0.000000 -2.000000
v 2.500000 0.000000 2.000000
v 2.500000 0.000000 -2.000000
v -2.000000 0.000000 9.500000
v 2.000000 0.000000 9.500000
v -2.000000 0.000000 2.500000
v 2.000000 0.000000 2.500000
vt 0.856667 0.643111
vt 0.500000 0.999778
vt 0.500000 0.643111
vt 0.500000 0.286000
vt 0.856667 0.642667
vt 0.500000 0.642667
vt 0.500000 0.000222
vt 0.999333 0.285555
vt 0.500000 0.285555
vt 0.499555 0.285555
vt 0.000222 0.000222
vt 0.499555 0.000222
vt 0.499555 0.857111
vt 0.000222 0.571778
vt 0.499555 0.571778
vt 0.000222 0.286000
vt 0.499555 0.571333
vt 0.000222 0.571333
vt 0.856667 0.999778
vt 0.856667 0.286000
vt 0.999333 0.000222
vt 0.000222 0.285556
vt 0.000222 0.857111
vt 0.499555 0.286000
vn 0.0000 1.0000 0.0000
usemtl Material
s off
f 99/1/4 100/2/4 98/3/4
f 103/4/4 104/5/4 102/6/4
f 107/7/4 108/8/4 106/9/4
f 111/10/4 112/11/4 110/12/4
f 115/13/4 116/14/4 114/15/4
f 119/16/4 120/17/4 118/18/4
f 99/1/4 101/19/4 100/2/4
f 103/4/4 105/20/4 104/5/4
f 107/7/4 109/21/4 108/8/4
f 111/10/4 113/22/4 112/11/4
f 115/13/4 117/23/4 116/14/4
f 119/16/4 121/24/4 120/17/4
