# Blender v2.79 (sub 0) OBJ File: 'Museum.blend'
# www.blender.org
mtllib Museum.mtl
o Plane.024
v 9.500000 0.000000 2.500000
v 14.500000 0.000000 2.500000
v 9.500000 0.000000 -2.500000
v 14.500000 0.000000 -2.500000
vn 0.0000 1.0000 0.0000
usemtl None
s off
f 2//1 3//1 1//1
f 2//1 4//1 3//1
o Plane.023
v 14.500000 0.000000 2.500000
v 14.500000 0.000000 -2.500000
v 14.500000 3.000000 2.500000
v 14.500000 3.000000 -2.500000
vn 1.0000 0.0000 0.0000
usemtl None
s off
f 6//2 7//2 5//2
f 6//2 8//2 7//2
o Plane.022
v 9.500000 0.000000 -2.500000
v 14.500000 0.000000 -2.500000
v 9.500000 3.000000 -2.500000
v 14.500000 3.000000 -2.500000
vn 0.0000 0.0000 1.0000
usemtl None
s off
f 10//3 11//3 9//3
f 10//3 12//3 11//3
o Plane.021
v 9.500000 0.000000 2.500000
v 14.500000 0.000000 2.500000
v 9.500000 3.000000 2.500000
v 14.500000 3.000000 2.500000
vn 0.0000 0.0000 1.0000
usemtl None
s off
f 14//4 15//4 13//4
f 14//4 16//4 15//4
o Plane.020
v 9.500000 0.000000 2.500000
v 9.500000 0.000000 -2.500000
v 9.500000 3.000000 2.500000
v 9.500000 3.000000 -2.500000
v 9.500000 0.020000 0.375000
v 9.500000 0.020000 -0.375000
v 9.500000 1.520000 -0.375000
v 9.500000 1.520000 0.375000
vn 1.0000 0.0000 0.0000
usemtl None
s off
f 18//5 23//5 22//5
f 24//5 17//5 21//5
f 21//5 17//5 18//5
f 18//5 20//5 23//5
f 22//5 21//5 18//5
f 24//5 23//5 20//5
f 19//5 17//5 24//5
f 24//5 20//5 19//5
o Plane.019
v -9.500000 0.000000 2.000000
v -9.500000 0.000000 -2.000000
v -9.500000 3.000000 2.000000
v -9.500000 3.000000 -2.000000
vn 1.0000 0.0000 0.0000
usemtl None
s off
f 26//6 27//6 25//6
f 26//6 28//6 27//6
o Plane.017_Plane.004
v -2.000000 0.000000 -9.500000
v 2.000000 0.000000 -9.500000
v -2.000000 3.000000 -9.500000
v 2.000000 3.000000 -9.500000
vn 0.0000 0.0000 1.0000
usemtl None
s off
f 30//7 31//7 29//7
f 30//7 32//7 31//7
o Plane.016_Plane.018
v -2.000000 0.000000 -2.500000
v 2.000000 0.000000 -2.500000
v -2.000000 0.000000 -9.500000
v 2.000000 0.000000 -9.500000
vn 0.0000 1.0000 0.0000
usemtl None
s off
f 34//8 35//8 33//8
f 34//8 36//8 35//8
o Plane.015_Plane.017
v -9.500000 -0.000002 -2.000000
v -2.500000 -0.000002 -2.000000
v -9.500000 2.999998 -2.000000
v -2.500000 2.999998 -2.000000
vn 0.0000 -0.0000 1.0000
usemtl None
s off
f 38//9 39//9 37//9
f 38//9 40//9 39//9
o Plane.014_Plane.016
v -9.500000 -0.000002 2.000000
v -2.500000 -0.000002 2.000000
v -9.500000 2.999998 2.000000
v -2.500000 2.999998 2.000000
vn 0.0000 -0.0000 1.0000
usemtl None
s off
f 42//10 43//10 41//10
f 42//10 44//10 43//10
o Plane.013_Plane.015
v 2.500000 -0.000002 2.000000
v 9.500000 -0.000002 2.000000
v 2.500000 2.999998 2.000000
v 9.500000 2.999998 2.000000
vn 0.0000 -0.0000 1.0000
usemtl None
s off
f 46//11 47//11 45//11
f 46//11 48//11 47//11
o Plane.012_Plane.014
v 2.500000 -0.000002 -2.000000
v 9.500000 -0.000002 -2.000000
v 2.500000 2.999998 -2.000000
v 9.500000 2.999998 -2.000000
vn 0.0000 -0.0000 1.0000
usemtl None
s off
f 50//12 51//12 49//12
f 50//12 52//12 51//12
o Plane.011_Plane.013
v 2.000000 -0.000002 -2.500000
v 2.000000 -0.000002 -9.500000
v 2.000000 2.999998 -2.500000
v 2.000000 2.999998 -9.500000
vn 1.0000 -0.0000 -0.0000
usemtl None
s off
f 54//13 55//13 53//13
f 54//13 56//13 55//13
o Plane.010_Plane.012
v -2.000000 0.000000 -2.500000
v -2.000000 0.000000 -9.500000
v -2.000000 3.000000 -2.500000
v -2.000000 3.000000 -9.500000
vn 1.0000 0.0000 -0.0000
usemtl None
s off
f 58//14 59//14 57//14
f 58//14 60//14 59//14
o Plane.009_Plane.011
v -2.500000 0.000000 2.000000
v -2.500000 0.000000 -2.000000
v -9.500000 0.000000 2.000000
v -9.500000 0.000000 -2.000000
vn 0.0000 1.0000 0.0000
usemtl None
s off
f 62//15 63//15 61//15
f 62//15 64//15 63//15
o Plane.008_Plane.010
v 9.500000 0.000000 2.000000
v 9.500000 0.000000 -2.000000
v 2.500000 0.000000 2.000000
v 2.500000 0.000000 -2.000000
vn 0.0000 1.0000 0.0000
usemtl None
s off
f 66//16 67//16 65//16
f 66//16 68//16 67//16
o Plane.007_Plane.009
v -2.000000 0.000000 9.500000
v 2.000000 0.000000 9.500000
v -2.000000 0.000000 2.500000
v 2.000000 0.000000 2.500000
vn 0.0000 1.0000 0.0000
usemtl None
s off
f 70//17 71//17 69//17
f 70//17 72//17 71//17
o Plane.006_Plane.008
v -2.000000 0.000000 9.500000
v -2.000000 0.000000 2.500000
v -2.000000 3.000000 9.500000
v -2.000000 3.000000 2.500000
vn 1.0000 0.0000 -0.0000
usemtl None
s off
f 74//18 75//18 73//18
f 74//18 76//18 75//18
o Plane.005_Plane.007
v 2.000000 0.000000 9.500000
v 2.000000 0.000000 2.500000
v 2.000000 3.000000 9.500000
v 2.000000 3.000000 2.500000
vn 1.0000 -0.0000 -0.0000
usemtl None
s off
f 78//19 79//19 77//19
f 78//19 80//19 79//19
o Plane.004_Plane.005
v 2.500000 0.000000 2.500000
v 2.500000 0.000000 -2.500000
v 2.500000 3.000000 2.500000
v 2.500000 3.000000 -2.500000
v 2.500000 0.020000 0.375000
v 2.500000 0.020000 -0.375000
v 2.500000 1.520000 -0.375000
v 2.500000 1.520000 0.375000
vn 1.0000 0.0000 -0.0000
usemtl None
s off
f 82//20 87//20 86//20
f 88//20 81//20 85//20
f 85//20 81//20 82//20
f 82//20 84//20 87//20
f 86//20 85//20 82//20
f 88//20 87//20 84//20
f 83//20 81//20 88//20
f 88//20 84//20 83//20
o Plane.003
v -2.500000 0.000000 2.500000
v -2.500000 0.000000 -2.500000
v -2.500000 3.000000 2.500000
v -2.500000 3.000000 -2.500000
v -2.500000 0.020000 0.375000
v -2.500000 0.020000 -0.375000
v -2.500000 1.520000 -0.375000
v -2.500000 1.520000 0.375000
v -2.500000 1.275000 0.375000
vn 1.0000 0.0000 0.0000
usemtl None
s off
f 89//21 94//21 93//21
f 96//21 89//21 97//21
f 90//21 92//21 95//21
f 90//21 95//21 94//21
f 93//21 97//21 89//21
f 90//21 94//21 89//21
f 96//21 95//21 92//21
f 91//21 89//21 96//21
f 96//21 92//21 91//21
o Plane.002
v -2.500000 0.000000 2.500000
v 2.500000 0.000000 2.500000
v -2.500000 3.000000 2.500000
v 2.500000 3.000000 2.500000
v -0.375000 1.520000 2.500000
v 0.375000 1.520000 2.500000
v 0.375000 0.020000 2.500000
v -0.375000 0.020000 2.500000
vn 0.0000 0.0000 1.0000
usemtl None
s off
f 99//22 103//22 104//22
f 102//22 101//22 100//22
f 105//22 98//22 99//22
f 99//22 101//22 103//22
f 104//22 105//22 99//22
f 98//22 105//22 102//22
f 102//22 103//22 101//22
f 100//22 98//22 102//22
o Plane.001
v -2.500000 0.000000 -2.500000
v 2.500000 0.000000 -2.500000
v -2.500000 3.000000 -2.500000
v 2.500000 3.000000 -2.500000
v -0.375000 1.520000 -2.500000
v 0.375000 1.520000 -2.500000
v 0.375000 0.020000 -2.500000
v -0.375000 0.020000 -2.500000
vn 0.0000 0.0000 1.0000
usemtl None
s off
f 107//23 111//23 112//23
f 110//23 109//23 108//23
f 113//23 106//23 107//23
f 107//23 109//23 111//23
f 112//23 113//23 107//23
f 106//23 113//23 110//23
f 110//23 111//23 109//23
f 108//23 106//23 110//23
o Plane
v -2.500000 0.000000 2.500000
v 2.500000 0.000000 2.500000
v -2.500000 0.000000 -2.500000
v 2.500000 0.000000 -2.500000
vn 0.0000 1.0000 0.0000
usemtl None
s off
f 115//24 116//24 114//24
f 115//24 117//24 116//24
o Plane.018_Plane.006
v -2.000000 0.000000 9.500000
v 2.000000 0.000000 9.500000
v -2.000000 3.000000 9.500000
v 2.000000 3.000000 9.500000
vn 0.0000 0.0000 1.0000
usemtl None
s off
f 119//25 120//25 118//25
f 119//25 121//25 120//25
