# Blender v2.79 (sub 0) OBJ File: 'Museum2.blend'
# www.blender.org
mtllib Museum3.mtl
o Plane.024
v -0.185005 -0.035661 0.239041
v 0.314995 -0.035661 0.239041
v -0.185005 -0.035661 -0.260959
v 0.314995 -0.035661 -0.260959
v 0.314995 -0.035661 0.239041
v 0.314995 -0.035661 -0.260959
v 0.314995 0.264339 0.239041
v 0.314995 0.264339 -0.260959
v -0.185005 -0.035661 -0.260959
v 0.314995 -0.035661 -0.260959
v -0.185005 0.264339 -0.260959
v 0.314995 0.264339 -0.260959
v -0.185005 -0.035661 0.239041
v 0.314995 -0.035661 0.239041
v -0.185005 0.264339 0.239041
v 0.314995 0.264339 0.239041
v -0.185005 -0.035661 0.239041
v -0.185005 -0.035661 -0.260959
v -0.185005 0.264339 0.239041
v -0.185005 0.264339 -0.260959
v -0.185005 -0.033661 0.026541
v -0.185005 -0.033661 -0.048459
v -0.185005 0.116339 -0.048459
v -0.185005 0.116339 0.026541
v -2.085005 -0.035661 0.189041
v -2.085005 -0.035661 -0.210959
v -2.085005 0.264339 0.189041
v -2.085005 0.264339 -0.210959
v -2.085005 -0.035661 -0.210959
v -1.385005 -0.035661 -0.210959
v -2.085005 0.264339 -0.210959
v -1.385005 0.264339 -0.210959
v -2.085005 -0.035661 0.189041
v -1.385005 -0.035661 0.189041
v -2.085005 0.264339 0.189041
v -1.385005 0.264339 0.189041
v -1.385005 -0.035661 -0.260959
v -0.885005 -0.035661 -0.260959
v -1.385005 0.264339 -0.260959
v -0.885005 0.264339 -0.260959
v -1.172505 0.116339 -0.260959
v -1.097505 0.116339 -0.260959
v -1.097505 -0.033661 -0.260959
v -1.172505 -0.033661 -0.260959
v -1.385005 -0.035661 0.239041
v -0.885005 -0.035661 0.239041
v -1.385005 -0.035661 -0.260959
v -0.885005 -0.035661 -0.260959
v -1.385005 -0.035661 0.239041
v -1.385005 -0.035661 -0.260959
v -1.385005 0.264339 0.239041
v -1.385005 0.264339 -0.260959
v -1.385005 -0.033661 0.026541
v -1.385005 -0.033661 -0.048459
v -1.385005 0.116339 -0.048459
v -1.385005 0.116339 0.026541
v -1.385005 0.091839 0.026541
v -1.335005 -0.035661 0.939041
v -0.935005 -0.035661 0.939041
v -1.335005 -0.035661 0.239041
v -0.935005 -0.035661 0.239041
v -1.385005 -0.035661 0.189041
v -1.385005 -0.035661 -0.210959
v -2.085005 -0.035661 0.189041
v -2.085005 -0.035661 -0.210959
v -1.335005 -0.035661 -0.260959
v -0.935005 -0.035661 -0.260959
v -1.335005 -0.035661 -0.960959
v -0.935005 -0.035661 -0.960959
v -1.335005 -0.035661 -0.960959
v -0.935005 -0.035661 -0.960959
v -1.335005 0.264339 -0.960959
v -0.935005 0.264339 -0.960959
v -0.885005 -0.035661 0.189041
v -0.185005 -0.035661 0.189041
v -0.885005 0.264339 0.189041
v -0.185005 0.264339 0.189041
v -0.885005 -0.035661 -0.210959
v -0.185005 -0.035661 -0.210959
v -0.885005 0.264339 -0.210959
v -0.185005 0.264339 -0.210959
v -0.935005 -0.035661 -0.260959
v -0.935005 -0.035661 -0.960959
v -0.935005 0.264339 -0.260959
v -0.935005 0.264339 -0.960959
v -1.335005 -0.035661 -0.260959
v -1.335005 -0.035661 -0.960959
v -1.335005 0.264339 -0.260959
v -1.335005 0.264339 -0.960959
v -0.185005 -0.035661 0.189041
v -0.185005 -0.035661 -0.210959
v -0.885005 -0.035661 0.189041
v -0.885005 -0.035661 -0.210959
v -1.335005 -0.035661 0.939041
v -1.335005 -0.035661 0.239041
v -1.335005 0.264339 0.939041
v -1.335005 0.264339 0.239041
v -0.885005 -0.035661 0.239041
v -0.885005 -0.035661 -0.260959
v -0.885005 0.264339 0.239041
v -0.885005 0.264339 -0.260959
v -0.885005 -0.033661 0.026541
v -0.885005 -0.033661 -0.048459
v -0.885005 0.116339 -0.048459
v -0.885005 0.116339 0.026541
v -1.385005 -0.035661 0.239041
v -0.885005 -0.035661 0.239041
v -1.385005 0.264339 0.239041
v -0.885005 0.264339 0.239041
v -1.172505 0.116339 0.239041
v -1.097505 0.116339 0.239041
v -1.097505 -0.033661 0.239041
v -1.172505 -0.033661 0.239041
v -1.335005 -0.035661 0.939041
v -0.935005 -0.035661 0.939041
v -1.335005 0.264339 0.939041
v -0.935005 0.264339 0.939041
v -0.935005 -0.035661 0.939041
v -0.935005 -0.035661 0.239041
v -0.935005 0.264339 0.939041
v -0.935005 0.264339 0.239041
vt 0.000000 0.000000
vt 0.000000 0.000000
vt 0.000000 0.000000
vt 0.000000 0.000000
vt 0.000000 0.000000
vt 0.000000 0.000000
vt 0.000000 0.000000
vt 0.000000 0.000000
vt 0.000000 0.000000
vt 0.000000 0.000000
vt 0.000000 0.000000
vt 0.000000 0.000000
vt 0.000000 0.000000
vt 0.000000 0.000000
vt 0.000000 0.000000
vt 0.000000 0.000000
vt 0.000000 0.000000
vt 0.000000 0.000000
vt 0.000000 0.000000
vt 0.000000 0.000000
vt 0.000000 0.000000
vt 0.000000 0.000000
vt 0.000000 0.000000
vt 0.000000 0.000000
vt 0.000000 0.000000
vt 0.000000 0.000000
vt 0.000000 0.000000
vt 0.000000 0.000000
vt 0.000000 0.000000
vt 0.000000 0.000000
vt 0.000000 0.000000
vt 0.000000 0.000000
vt 0.000000 0.000000
vt 0.000000 0.000000
vt 0.000000 0.000000
vt 0.000000 0.000000
vt 0.000000 0.000000
vt 0.000000 0.000000
vt 0.000000 0.000000
vt 0.000000 0.000000
vt 0.000000 0.000000
vt 0.000000 0.000000
vt 0.000000 0.000000
vt 0.000000 0.000000
vt 0.000000 0.000000
vt 0.000000 0.000000
vt 0.000000 0.000000
vt 0.000000 0.000000
vt 0.000000 0.000000
vt 0.000000 0.000000
vt 0.000000 0.000000
vt 0.000000 0.000000
vt 0.000000 0.000000
vt 0.000000 0.000000
vt 0.000000 0.000000
vt 0.000000 0.000000
vt 0.000000 0.000000
vt 0.000000 0.000000
vt 0.000000 0.000000
vt 0.000000 0.000000
vt 0.000000 0.000000
vt 0.000000 0.000000
vt 0.000000 0.000000
vt 0.000000 0.000000
vt 0.000000 0.000000
vt 0.000000 0.000000
vt 0.000000 0.000000
vt 0.000000 0.000000
vt 0.000000 0.000000
vt 0.000000 0.000000
vt 0.000000 0.000000
vt 0.000000 0.000000
vt 0.000000 0.000000
vt 0.000000 0.000000
vt 0.000000 0.000000
vt 0.000000 0.000000
vt 0.000000 0.000000
vt 0.000000 0.000000
vt 0.000000 0.000000
vt 0.000000 0.000000
vt 0.000000 0.000000
vt 0.000000 0.000000
vt 0.000000 0.000000
vt 0.000000 0.000000
vt 0.000000 0.000000
vt 0.000000 0.000000
vt 0.000000 0.000000
vt 0.000000 0.000000
vt 0.000000 0.000000
vt 0.000000 0.000000
vt 0.000000 0.000000
vt 0.000000 0.000000
vt 0.000000 0.000000
vt 0.000000 0.000000
vt 0.000000 0.000000
vt 0.000000 0.000000
vt 0.000000 0.000000
vt 0.000000 0.000000
vt 0.000000 0.000000
vt 0.000000 0.000000
vt 0.000000 0.000000
vt 0.000000 0.000000
vt 0.000000 0.000000
vt 0.000000 0.000000
vt 0.000000 0.000000
vt 0.000000 0.000000
vt 0.000000 0.000000
vt 0.000000 0.000000
vt 0.000000 0.000000
vt 0.000000 0.000000
vt 0.000000 0.000000
vt 0.000000 0.000000
vt 0.000000 0.000000
vt 0.000000 0.000000
vt 0.000000 0.000000
vt 0.000000 0.000000
vt 0.000000 0.000000
vt 0.000000 0.000000
vt 0.000000 0.000000
vt 0.000000 0.000000
vt 0.000000 0.000000
vn 0.0000 1.0000 0.0000
vn 1.0000 0.0000 -0.0000
vn 0.0000 0.0000 1.0000
vn 1.0000 0.0001 0.0000
vn 1.0000 -0.0004 0.0000
vn 1.0000 0.0004 0.0000
g Plane.024_Plane.024_None
usemtl None
s off
f 2/1/1 3/2/1 1/3/1
f 6/4/2 7/5/2 5/6/2
f 10/7/3 11/8/3 9/9/3
f 14/10/3 15/11/3 13/12/3
f 18/13/2 23/14/2 22/15/2
f 24/16/2 17/17/2 21/18/2
f 26/19/2 27/20/2 25/21/2
f 30/22/3 31/23/3 29/24/3
f 34/25/3 35/26/3 33/27/3
f 38/28/3 42/29/3 43/30/3
f 41/31/3 40/32/3 39/33/3
f 46/34/1 47/35/1 45/36/1
f 49/37/4 50/38/4 53/39/4
f 56/40/2 49/37/2 57/41/2
f 59/42/1 60/43/1 58/44/1
f 63/45/1 64/46/1 62/47/1
f 67/48/1 68/49/1 66/50/1
f 70/51/3 73/52/3 72/53/3
f 75/54/3 76/55/3 74/56/3
f 79/57/3 80/58/3 78/59/3
f 83/60/2 84/61/2 82/62/2
f 87/63/2 88/64/2 86/65/2
f 91/66/1 92/67/1 90/68/1
f 95/69/2 96/70/2 94/71/2
f 99/72/2 104/73/2 103/74/2
f 105/75/2 98/76/2 102/77/2
f 107/78/3 111/79/3 112/80/3
f 110/81/3 109/82/3 108/83/3
f 114/84/3 117/85/3 116/86/3
f 119/87/2 120/88/2 118/89/2
f 2/1/1 4/90/1 3/2/1
f 6/4/2 8/91/2 7/5/2
f 10/7/3 12/92/3 11/8/3
f 14/10/3 16/93/3 15/11/3
f 21/18/2 17/17/2 18/13/2
f 18/13/2 20/94/2 23/14/2
f 22/15/2 21/18/2 18/13/2
f 24/16/2 23/14/2 20/94/2
f 19/95/2 17/17/2 24/16/2
f 24/16/2 20/94/2 19/95/2
f 26/19/2 28/96/2 27/20/2
f 30/22/3 32/97/3 31/23/3
f 34/25/3 36/98/3 35/26/3
f 44/99/3 37/100/3 43/30/3
f 38/28/3 40/32/3 42/29/3
f 43/30/3 37/100/3 38/28/3
f 37/100/3 44/99/3 41/31/3
f 41/31/3 42/29/3 40/32/3
f 39/33/3 37/100/3 41/31/3
f 46/34/1 48/101/1 47/35/1
f 50/38/2 52/102/2 55/103/2
f 50/38/2 55/103/2 54/104/2
f 53/39/2 57/41/2 49/37/2
f 50/38/5 54/104/5 53/39/5
f 56/40/2 55/103/2 52/102/2
f 51/105/2 49/37/2 56/40/2
f 56/40/2 52/102/2 51/105/2
f 59/42/1 61/106/1 60/43/1
f 63/45/1 65/107/1 64/46/1
f 67/48/1 69/108/1 68/49/1
f 70/51/3 71/109/3 73/52/3
f 75/54/3 77/110/3 76/55/3
f 79/57/3 81/111/3 80/58/3
f 83/60/2 85/112/2 84/61/2
f 87/63/2 89/113/2 88/64/2
f 91/66/1 93/114/1 92/67/1
f 95/69/2 97/115/2 96/70/2
f 102/77/2 98/76/2 99/72/2
f 99/72/2 101/116/2 104/73/2
f 103/74/6 102/77/6 99/72/6
f 105/75/2 104/73/2 100/117/2
f 100/117/2 98/76/2 105/75/2
f 104/73/2 101/116/2 100/117/2
f 113/118/3 106/119/3 112/80/3
f 107/78/3 109/82/3 111/79/3
f 112/80/3 106/119/3 107/78/3
f 106/119/3 113/118/3 110/81/3
f 110/81/3 111/79/3 109/82/3
f 108/83/3 106/119/3 110/81/3
f 114/84/3 115/120/3 117/85/3
f 119/87/2 121/121/2 120/88/2
