# Blender v2.79 (sub 0) OBJ File: 'Museum2.blend'
# www.blender.org
mtllib Museum2.mtl
o Plane.024
v 9.500000 0.000000 2.500000
v 14.500000 0.000000 2.500000
v 9.500000 0.000000 -2.500000
v 14.500000 0.000000 -2.500000
v 14.500000 0.000000 2.500000
v 14.500000 0.000000 -2.500000
v 14.500000 3.000000 2.500000
v 14.500000 3.000000 -2.500000
v 9.500000 0.000000 -2.500000
v 14.500000 0.000000 -2.500000
v 9.500000 3.000000 -2.500000
v 14.500000 3.000000 -2.500000
v 9.500000 0.000000 2.500000
v 14.500000 0.000000 2.500000
v 9.500000 3.000000 2.500000
v 14.500000 3.000000 2.500000
v 9.500000 0.000000 2.500000
v 9.500000 0.000000 -2.500000
v 9.500000 3.000000 2.500000
v 9.500000 3.000000 -2.500000
v 9.500000 0.020000 0.375000
v 9.500000 0.020000 -0.375000
v 9.500000 1.520000 -0.375000
v 9.500000 1.520000 0.375000
v -9.499998 0.000000 2.000000
v -9.499998 0.000000 -2.000000
v -9.499998 3.000000 2.000000
v -9.499998 3.000000 -2.000000
v -9.499998 -0.000002 -2.000000
v -2.499999 -0.000002 -2.000000
v -9.499998 2.999998 -2.000000
v -2.499999 2.999999 -2.000000
v -9.499998 -0.000002 2.000000
v -2.499999 -0.000002 2.000000
v -9.499998 2.999998 2.000000
v -2.499999 2.999999 2.000000
v -2.499999 -0.000000 -2.500000
v 2.500001 0.000000 -2.500000
v -2.499999 3.000000 -2.500000
v 2.500001 3.000000 -2.500000
v -0.375000 1.520000 -2.500000
v 0.375001 1.520000 -2.500000
v 0.375001 0.020000 -2.500000
v -0.375000 0.020000 -2.500000
v -2.499999 0.000000 2.500000
v 2.500001 0.000000 2.500000
v -2.499999 -0.000000 -2.500000
v 2.500001 0.000000 -2.500000
v -2.499999 0.000000 2.500000
v -2.499999 -0.000000 -2.500000
v -2.499999 3.000000 2.500000
v -2.499999 3.000000 -2.500000
v -2.499999 0.020000 0.375000
v -2.499999 0.020000 -0.375000
v -2.499999 1.520000 -0.375000
v -2.499999 1.520000 0.375000
v -2.499999 1.275000 0.375000
v -1.999998 0.000000 9.499999
v 2.000001 0.000000 9.499999
v -1.999998 0.000000 2.500000
v 2.000001 0.000000 2.500000
v -2.499999 0.000000 2.000000
v -2.499999 -0.000000 -2.000000
v -9.499998 0.000000 2.000000
v -9.499998 0.000000 -2.000000
v -1.999998 0.000000 -2.500000
v 2.000001 0.000000 -2.500000
v -1.999998 -0.000000 -9.500000
v 2.000001 -0.000000 -9.500000
v -1.999998 -0.000000 -9.500000
v 2.000001 -0.000000 -9.500000
v -1.999998 3.000000 -9.500000
v 2.000001 3.000000 -9.500000
v 2.500001 -0.000002 2.000000
v 9.500000 -0.000002 2.000000
v 2.500001 2.999999 2.000000
v 9.500000 2.999999 2.000000
v 2.500001 -0.000002 -2.000000
v 9.500000 -0.000002 -2.000000
v 2.500001 2.999998 -2.000000
v 9.500000 2.999998 -2.000000
v 2.000001 -0.000002 -2.500000
v 2.000001 -0.000002 -9.500000
v 2.000001 2.999998 -2.500000
v 2.000001 2.999998 -9.500000
v -1.999998 0.000000 -2.500000
v -2.000000 -0.000000 -9.500000
v -1.999998 3.000000 -2.500000
v -2.000000 3.000000 -9.500000
v 9.500000 0.000000 2.000000
v 9.500000 -0.000000 -2.000000
v 2.500001 0.000000 2.000000
v 2.500001 0.000000 -2.000000
v -1.999998 0.000000 9.499999
v -2.000000 0.000000 2.500000
v -1.999998 3.000001 9.499999
v -2.000000 3.000000 2.500000
v 2.500001 0.000000 2.500000
v 2.500001 0.000000 -2.500000
v 2.500001 3.000000 2.500000
v 2.500001 3.000000 -2.500000
v 2.500001 0.020000 0.375000
v 2.500001 0.020000 -0.375000
v 2.500001 1.520000 -0.375000
v 2.500001 1.520000 0.375000
v -2.499999 0.000000 2.500000
v 2.500001 0.000000 2.500000
v -2.499999 3.000000 2.500000
v 2.500001 3.000000 2.500000
v -0.375000 1.520000 2.500000
v 0.375001 1.520000 2.500000
v 0.375001 0.020000 2.500000
v -0.375000 0.020000 2.500000
v -1.999998 0.000000 9.499999
v 2.000001 0.000000 9.499999
v -1.999998 3.000001 9.499999
v 2.000000 3.000000 9.499999
v 2.000001 0.000000 9.499999
v 2.000001 0.000000 2.500000
v 2.000001 3.000000 9.499999
v 2.000001 3.000000 2.500000
vt 0.000000 0.000000
vt 0.000000 0.000000
vt 0.000000 0.000000
vt 0.000000 0.000000
vt 0.000000 0.000000
vt 0.000000 0.000000
vt 0.000000 0.000000
vt 0.000000 0.000000
vt 0.000000 0.000000
vt 0.000000 0.000000
vt 0.000000 0.000000
vt 0.000000 0.000000
vt 0.000000 0.000000
vt 0.000000 0.000000
vt 0.000000 0.000000
vt 0.000000 0.000000
vt 0.000000 0.000000
vt 0.000000 0.000000
vt 0.000000 0.000000
vt 0.000000 0.000000
vt 0.000000 0.000000
vt 0.000000 0.000000
vt 0.000000 0.000000
vt 0.000000 0.000000
vt 0.000000 0.000000
vt 0.000000 0.000000
vt 0.000000 0.000000
vt 0.000000 0.000000
vt 0.000000 0.000000
vt 0.000000 0.000000
vt 0.000000 0.000000
vt 0.000000 0.000000
vt 0.000000 0.000000
vt 0.000000 0.000000
vt 0.000000 0.000000
vt 0.000000 0.000000
vt 0.000000 0.000000
vt 0.000000 0.000000
vt 0.000000 0.000000
vt 0.000000 0.000000
vt 0.000000 0.000000
vt 0.000000 0.000000
vt 0.000000 0.000000
vt 0.000000 0.000000
vt 0.000000 0.000000
vt 0.000000 0.000000
vt 0.000000 0.000000
vt 0.000000 0.000000
vt 0.000000 0.000000
vt 0.000000 0.000000
vt 0.000000 0.000000
vt 0.000000 0.000000
vt 0.000000 0.000000
vt 0.000000 0.000000
vt 0.000000 0.000000
vt 0.000000 0.000000
vt 0.000000 0.000000
vt 0.000000 0.000000
vt 0.000000 0.000000
vt 0.000000 0.000000
vt 0.000000 0.000000
vt 0.000000 0.000000
vt 0.000000 0.000000
vt 0.000000 0.000000
vt 0.000000 0.000000
vt 0.000000 0.000000
vt 0.000000 0.000000
vt 0.000000 0.000000
vt 0.000000 0.000000
vt 0.000000 0.000000
vt 0.000000 0.000000
vt 0.000000 0.000000
vt 0.000000 0.000000
vt 0.000000 0.000000
vt 0.000000 0.000000
vt 0.000000 0.000000
vt 0.000000 0.000000
vt 0.000000 0.000000
vt 0.000000 0.000000
vt 0.000000 0.000000
vt 0.000000 0.000000
vt 0.000000 0.000000
vt 0.000000 0.000000
vt 0.000000 0.000000
vt 0.000000 0.000000
vt 0.000000 0.000000
vt 0.000000 0.000000
vt 0.000000 0.000000
vt 0.000000 0.000000
vt 0.000000 0.000000
vt 0.000000 0.000000
vt 0.000000 0.000000
vt 0.000000 0.000000
vt 0.000000 0.000000
vt 0.000000 0.000000
vt 0.000000 0.000000
vt 0.000000 0.000000
vt 0.000000 0.000000
vt 0.000000 0.000000
vt 0.000000 0.000000
vt 0.000000 0.000000
vt 0.000000 0.000000
vt 0.000000 0.000000
vt 0.000000 0.000000
vt 0.000000 0.000000
vt 0.000000 0.000000
vt 0.000000 0.000000
vt 0.000000 0.000000
vt 0.000000 0.000000
vt 0.000000 0.000000
vt 0.000000 0.000000
vt 0.000000 0.000000
vt 0.000000 0.000000
vt 0.000000 0.000000
vt 0.000000 0.000000
vt 0.000000 0.000000
vt 0.000000 0.000000
vt 0.000000 0.000000
vt 0.000000 0.000000
vt 0.000000 0.000000
vt 0.000000 0.000000
vn 0.0000 1.0000 0.0000
vn 1.0000 0.0000 0.0000
vn 0.0000 0.0000 1.0000
g Plane.024_Plane.024_None
usemtl None
s 1
f 2/1/1 3/2/1 1/3/1
f 6/4/2 7/5/2 5/6/2
f 10/7/3 11/8/3 9/9/3
f 14/10/3 15/11/3 13/12/3
f 18/13/2 23/14/2 22/15/2
f 24/16/2 17/17/2 21/18/2
f 26/19/2 27/20/2 25/21/2
f 29/22/3 32/23/3 31/24/3
f 33/25/3 36/26/3 35/27/3
f 38/28/3 42/29/3 43/30/3
f 42/29/3 40/31/3 39/32/3
f 46/33/1 47/34/1 45/35/1
f 49/36/2 50/37/2 53/38/2
f 56/39/2 49/36/2 57/40/2
f 59/41/1 60/42/1 58/43/1
f 63/44/1 64/45/1 62/46/1
f 67/47/1 68/48/1 66/49/1
f 71/50/3 72/51/3 70/52/3
f 75/53/3 76/54/3 74/55/3
f 79/56/3 80/57/3 78/58/3
f 82/59/2 85/60/2 84/61/2
f 87/62/2 88/63/2 86/64/2
f 91/65/1 92/66/1 90/67/1
f 95/68/2 96/69/2 94/70/2
f 99/71/2 104/72/2 103/73/2
f 105/74/2 98/75/2 102/76/2
f 107/77/3 111/78/3 112/79/3
f 110/80/3 109/81/3 108/82/3
f 114/83/3 117/84/3 116/85/3
f 118/86/2 121/87/2 120/88/2
f 2/1/1 4/89/1 3/2/1
f 6/4/2 8/90/2 7/5/2
f 10/7/3 12/91/3 11/8/3
f 14/10/3 16/92/3 15/11/3
f 21/18/2 17/17/2 18/13/2
f 18/13/2 20/93/2 23/14/2
f 22/15/2 21/18/2 18/13/2
f 24/16/2 23/14/2 20/93/2
f 19/94/2 17/17/2 24/16/2
f 24/16/2 20/93/2 19/94/2
f 26/19/2 28/95/2 27/20/2
f 29/22/3 30/96/3 32/23/3
f 33/25/3 34/97/3 36/26/3
f 44/98/3 37/99/3 43/30/3
f 38/28/3 40/31/3 42/29/3
f 43/30/3 37/99/3 38/28/3
f 37/99/3 44/98/3 41/100/3
f 41/100/3 42/29/3 39/32/3
f 39/32/3 37/99/3 41/100/3
f 46/33/1 48/101/1 47/34/1
f 50/37/2 52/102/2 55/103/2
f 50/37/2 55/103/2 54/104/2
f 53/38/2 57/40/2 49/36/2
f 50/37/2 54/104/2 53/38/2
f 56/39/2 55/103/2 52/102/2
f 51/105/2 49/36/2 56/39/2
f 56/39/2 52/102/2 51/105/2
f 59/41/1 61/106/1 60/42/1
f 63/44/1 65/107/1 64/45/1
f 67/47/1 69/108/1 68/48/1
f 71/50/3 73/109/3 72/51/3
f 75/53/3 77/110/3 76/54/3
f 79/56/3 81/111/3 80/57/3
f 82/59/2 83/112/2 85/60/2
f 87/62/2 89/113/2 88/63/2
f 91/65/1 93/114/1 92/66/1
f 95/68/2 97/115/2 96/69/2
f 102/76/2 98/75/2 99/71/2
f 99/71/2 101/116/2 104/72/2
f 103/73/2 102/76/2 99/71/2
f 105/74/2 104/72/2 101/116/2
f 100/117/2 98/75/2 105/74/2
f 105/74/2 101/116/2 100/117/2
f 113/118/3 106/119/3 112/79/3
f 107/77/3 109/81/3 111/78/3
f 112/79/3 106/119/3 107/77/3
f 106/119/3 113/118/3 110/80/3
f 110/80/3 111/78/3 109/81/3
f 108/82/3 106/119/3 110/80/3
f 114/83/3 115/120/3 117/84/3
f 118/86/2 119/121/2 121/87/2
